<svg xmlns="http://www.w3.org/2000/svg" viewBox="0 0 1024 1024" role="img" aria-label="Yoon's Phonics Quest icon">
  <defs>
    <linearGradient id="sky" x1="0" y1="0" x2="0" y2="1">
      <stop offset="0" stop-color="#73d6f6"/>
      <stop offset="1" stop-color="#2dabdc"/>
    </linearGradient>
  </defs>
  <rect width="1024" height="1024" rx="210" fill="url(#sky)"/>
  <ellipse cx="512" cy="884" rx="400" ry="234" fill="#36b487"/>
  <ellipse cx="512" cy="872" rx="342" ry="181" fill="#58cc9a"/>
  <g fill="#fff8dc">
    <rect x="310" y="390" width="404" height="318" rx="42"/>
    <rect x="238" y="310" width="152" height="398" rx="40"/>
    <rect x="634" y="310" width="152" height="398" rx="40"/>
    <rect x="424" y="262" width="176" height="446" rx="44"/>
    <rect x="238" y="298" width="38" height="78" rx="12"/>
    <rect x="290" y="298" width="38" height="78" rx="12"/>
    <rect x="342" y="298" width="38" height="78" rx="12"/>
    <rect x="424" y="250" width="38" height="126" rx="12"/>
    <rect x="484" y="250" width="38" height="126" rx="12"/>
    <rect x="544" y="250" width="38" height="126" rx="12"/>
    <rect x="634" y="298" width="38" height="78" rx="12"/>
    <rect x="686" y="298" width="38" height="78" rx="12"/>
    <rect x="738" y="298" width="38" height="78" rx="12"/>
  </g>
  <path d="M512 282l80 108H432z" fill="#ffe484"/>
  <rect x="474" y="536" width="76" height="172" rx="36" fill="#1a3752"/>
  <g fill="#59bee3">
    <rect x="278" y="424" width="48" height="62" rx="18"/>
    <rect x="700" y="424" width="48" height="62" rx="18"/>
    <rect x="456" y="414" width="40" height="56" rx="18"/>
    <rect x="528" y="414" width="40" height="56" rx="18"/>
  </g>
  <path d="M599 258V176" stroke="#1a3752" stroke-width="8" stroke-linecap="round"/>
  <path d="M603 178l107 28-107 36z" fill="#ff694c"/>
  <path d="M326 718l324-182" stroke="#ca8410" stroke-width="82" stroke-linecap="round"/>
  <path d="M326 718l324-182" stroke="#ffcd34" stroke-width="58" stroke-linecap="round"/>
  <circle cx="324" cy="712" r="86" fill="#ca8410"/>
  <circle cx="324" cy="706" r="64" fill="#ffcd34"/>
  <circle cx="324" cy="706" r="26" fill="#fff7b2"/>
  <path d="M638 506h98v62h-98zM698 554h46v58h-46z" fill="#ffcd34"/>
  <text x="512" y="724" text-anchor="middle" font-family="Arial, sans-serif" font-weight="900" font-size="238" fill="#fff" stroke="#255b7f" stroke-width="12">Q</text>
  <g fill="none" stroke="#fff" stroke-linecap="round">
    <path d="M742 297a76 76 0 0 1 97-56" stroke-width="9" opacity=".78"/>
    <path d="M716 300a111 111 0 0 1 142-82" stroke-width="7" opacity=".55"/>
  </g>
</svg>
